<?xml version="1.0" standalone="no"?>
<!DOCTYPE svg PUBLIC "-//W3C//DTD SVG 20010904//EN"
 "http://www.w3.org/TR/2001/REC-SVG-20010904/DTD/svg10.dtd">
<svg version="1.0" xmlns="http://www.w3.org/2000/svg"
 width="700.000000pt" height="700.000000pt" viewBox="0 0 700.000000 700.000000"
 preserveAspectRatio="xMidYMid meet">
<metadata>
Created by potrace 1.14, written by Peter Selinger 2001-2017
</metadata>
<g transform="translate(0.000000,700.000000) scale(0.100000,-0.100000)"
fill="#000000" stroke="none">
<path d="M70 4872 l0 -459 237 -184 c131 -101 243 -187 248 -191 6 -4 26 -20
45 -36 19 -15 73 -57 120 -93 47 -35 87 -66 90 -69 3 -3 84 -66 180 -140 96
-74 177 -137 180 -140 3 -3 23 -18 44 -34 37 -28 38 -30 20 -43 -10 -8 -30
-22 -44 -33 -57 -44 -236 -182 -250 -193 -8 -7 -71 -55 -140 -107 -69 -52
-127 -98 -130 -101 -3 -3 -52 -41 -109 -85 -57 -43 -139 -106 -182 -139 -42
-33 -130 -100 -193 -149 l-116 -88 0 -461 c0 -437 1 -459 18 -445 9 8 159 125
332 258 173 134 414 321 535 415 121 93 232 179 246 190 15 11 184 142 375
291 462 358 748 580 806 623 26 20 46 40 44 45 -2 9 -56 52 -341 270 -60 47
-207 160 -325 251 -118 92 -228 176 -243 188 -16 12 -41 31 -55 43 -30 24
-420 325 -472 364 -18 14 -59 45 -91 70 -31 25 -119 92 -194 150 -76 58 -142
110 -149 115 -6 6 -81 64 -166 130 -85 65 -192 147 -237 183 l-83 64 0 -460z"/>
<path d="M2319 5304 c0 -16 -1 -222 -1 -458 0 -346 3 -431 14 -442 7 -7 47
-39 89 -71 42 -32 145 -112 230 -178 85 -66 195 -151 245 -190 146 -112 374
-289 394 -305 10 -8 51 -40 91 -70 39 -30 82 -64 95 -75 l24 -20 -417 -320
c-229 -176 -487 -373 -572 -439 -86 -65 -164 -126 -175 -136 -17 -17 -18 -42
-19 -464 0 -246 3 -449 6 -452 3 -4 93 61 199 143 106 82 216 167 244 189 144
110 947 732 964 747 8 7 65 50 125 96 61 47 112 87 115 91 3 3 21 17 40 30 19
13 37 27 40 30 5 6 443 345 562 434 37 28 67 54 67 57 1 4 -248 200 -429 338
-12 9 -34 25 -48 37 -34 27 -1062 820 -1202 928 -58 44 -110 85 -116 91 -7 5
-53 42 -104 80 -207 158 -413 318 -442 343 -17 14 -18 13 -19 -14z"/>
<path d="M4565 4872 l0 -457 340 -264 c399 -309 479 -372 680 -527 83 -64 151
-120 153 -124 2 -4 -19 -25 -47 -46 -61 -48 -57 -45 -556 -429 -225 -174 -420
-323 -432 -333 -12 -9 -34 -26 -49 -37 -16 -11 -42 -32 -59 -46 l-30 -27 1
-443 c1 -244 2 -450 3 -457 1 -8 20 2 48 25 26 21 54 43 61 48 7 6 21 17 31
25 9 8 62 49 116 90 55 41 109 82 120 92 17 14 120 94 645 500 63 49 122 94
130 101 8 7 65 50 125 97 61 46 115 88 120 92 26 20 201 156 372 289 103 80
280 217 392 304 l205 159 -28 20 c-28 21 -268 206 -296 229 -8 7 -51 39 -95
72 -44 33 -89 67 -100 77 -26 21 -361 281 -540 418 -76 58 -163 125 -194 150
-32 25 -70 54 -85 65 -16 11 -33 25 -40 30 -6 6 -51 42 -101 80 -49 38 -265
205 -480 370 -214 166 -394 304 -400 307 -7 4 -10 -149 -10 -450z"/>
</g>
</svg>
